<svg xmlns="http://www.w3.org/2000/svg" viewBox="0 0 100 100">
  <path fill="hsl(300, 100%, 25%)"
    d="m74.652 9.707s-27.02 4.3438-37.555 14.07c-6.7266 6.207-9.7227 10.863-12.207 17.074-2.8711 7.1797-3.4609 17.664-0.82812 23.586 2.0703 4.6562 4.4492 7.6562 4.4492 7.6562s7.0352-21.418 16.035-29.691c9-8.2773 13.551-10.348 13.551-10.348s-9.5664 8.9609-15.207 19.246c-4.6602 8.4922-11.66 22.492-13.125 36.094-0.14844 1.3711 0.69922 2.6445 2.0586 2.8711 1.3633 0.22266 2.6484-0.70312 2.8711-2.0664 0.75391-4.6133 1.5078-8.6133 2.7852-12.379 3.0352 0.058594 7.5078-0.25 13.789-1.5508 14.484-3 25.453-21.414 26.176-32.898 0.72266-11.488-0.92969-25.25-1.8633-28.457z" />
</svg>