<svg xmlns="http://www.w3.org/2000/svg" viewBox="0 0 100 100">
  <path fill="hsl(300, 100%, 25%)"
    d="m69.531 14.062c-8.1406 0-15.5 4.4375-19.531 11.562-4.0312-7.125-11.391-11.562-19.531-11.562-12.5 0-22.656 10.516-22.656 23.438 0 27.219 39.797 47.422 41.484 48.266 0.21875 0.10938 0.46875 0.17188 0.70312 0.17188s0.48438-0.0625 0.70312-0.17188c1.6875-0.84375 41.484-21.047 41.484-48.266 0-12.922-10.156-23.438-22.656-23.438zm-1.5625 9.375c0-0.85938 0.70312-1.5625 1.5625-1.5625 8.1875 0 14.844 7.0156 14.844 15.625 0 0.85938-0.70312 1.5625-1.5625 1.5625s-1.5625-0.70312-1.5625-1.5625c0-6.8906-5.25-12.5-11.719-12.5-0.85938 0-1.5625-0.70312-1.5625-1.5625z" />
</svg>