<svg xmlns="http://www.w3.org/2000/svg" viewBox="0 0 100 100">
  <g transform="translate(8,5) scale(0.9)" fill="hsl(300, 100%, 25%)">
    <path
      d="M29.028,59.989c0,6.231,4.137,7.79,8.275,10.786c3.333,2.396,6.912,7.189,6.912,11.505V100H32.721V84.677  c0-1.437-0.688-2.994-1.838-3.834C22.609,75.93,17.537,69.937,17.537,59.75c0-12.153,6.933-18.661,13.571-22.107  c3.624-1.881,7.361-3.24,7.361-3.24s-0.1,1.988,0.721,5.084c0.74,2.788,2.202,4.772,2.202,4.772s-2.024,1.218-4.368,2.487  C32.59,49.146,28.278,53.242,29.028,59.989L29.028,59.989z" />
    <path
      d="M62.095,60.018c0.233,6.224-4.122,7.785-8.243,10.777c-3.319,2.396-6.411,7.187-6.411,11.498V100h11.448V84.689  c0-1.438,0.688-2.996,1.831-3.833c8.242-4.912,13.113-10.682,13.113-20.86c0-9.089-4.576-14.329-11.228-18.072  c-2.649-1.783-10.113-3.1-10.113-7.164V24.077l5.955,1.916c0,0,0.46,0.047,0.573,0.047c1.603,0,2.531-1.229,2.531-2.788  c0-0.239-0.128-0.971-0.357-1.33L47.227,0.604c-0.343-0.479-0.599-0.889-1.144-0.479L31.659,22.161c0,0-0.211,0.708-0.245,0.944  c-0.256,1.797,0.917,3.19,2.993,2.887l6.446-2.311c0,4.792-0.282,14.738,2.35,18.811C47.061,49.853,61.694,49.352,62.095,60.018  L62.095,60.018z" />
  </g>
</svg>