<svg xmlns="http://www.w3.org/2000/svg" viewBox="0 0 100 100">
  <path fill="hsl(300, 100%, 25%)"
      d="M48,74.47H22.1a2.5,2.5,0,1,1,0-5h5l2.59-6.76H13.23a6.65,6.65,0,0,1-6.65-6.65V16.24a6.65,6.65,0,0,1,6.65-6.65H74.36A6.65,6.65,0,0,1,81,16.24V30.05H61.51A13.51,13.51,0,0,0,48,43.55ZM89.42,43.55V77.91a8.51,8.51,0,0,1-8.5,8.5H61.51a8.51,8.51,0,0,1-8.5-8.5V43.55a8.51,8.51,0,0,1,8.5-8.5H80.92A8.51,8.51,0,0,1,89.42,43.55ZM78.26,76.87a2.49,2.49,0,0,0-2.5-2.5H66.67a2.5,2.5,0,0,0,0,5h9.09A2.49,2.49,0,0,0,78.26,76.87Z" />
</svg>