<svg xmlns="http://www.w3.org/2000/svg" viewBox="0 0 100 100">
  <path fill="hsl(300, 100%, 25%)"
    d="m83.891 64c-1.1914 2.8711-0.46875 6.2188 1.6484 9.3594 0.96094 1.3945 0.89063 3.2539-0.16797 4.5703-2.1719 2.7305-4.6445 5.207-7.3711 7.3789-1.3203 1.0625-3.1836 1.1328-4.5781 0.17188-3.1406-2.1289-6.5-2.8398-9.3711-1.6484-2.8711 1.1914-4.75 4.0781-5.4609 7.8086-0.30469 1.668-1.6758 2.9336-3.3594 3.1094-3.4688 0.40625-6.9727 0.40625-10.441 0-1.6836-0.17578-3.0547-1.4414-3.3594-3.1094-0.71875-3.7305-2.5898-6.6406-5.4297-7.8125s-6.2305-0.48047-9.3711 1.6484v0.003907c-1.4062 0.98438-3.2969 0.91406-4.6289-0.17188-2.7344-2.1758-5.207-4.6602-7.3789-7.3984-1.0625-1.3203-1.1289-3.1758-0.17188-4.5703 2.1211-3.1406 2.8398-6.4883 1.6484-9.3594-1.1914-2.8711-4-4.7305-7.7617-5.4609h0.003906c-1.6719-0.30078-2.9414-1.6719-3.1094-3.3594-0.39062-3.4297-0.39062-6.8906 0-10.32 0.16797-1.6875 1.4375-3.0586 3.1094-3.3594 3.7109-0.73047 6.5703-2.5898 7.7617-5.4609 1.1914-2.8711 0.46875-6.2188-1.6484-9.3594h-0.003906c-0.95703-1.3945-0.89062-3.25 0.17188-4.5703 2.1719-2.7383 4.6445-5.2227 7.3789-7.3984 1.3203-1.0625 3.1836-1.1328 4.5781-0.17188 3.1406 2.1289 6.5 2.8398 9.3711 1.6484 2.8711-1.1914 4.75-4.0781 5.4609-7.8086 0.30469-1.668 1.6758-2.9336 3.3594-3.1094 3.4688-0.40625 6.9727-0.40625 10.441 0 1.6836 0.17578 3.0547 1.4414 3.3594 3.1094 0.71094 3.7305 2.5781 6.6211 5.4609 7.8086 2.8789 1.1914 6.2305 0.48047 9.3711-1.6484h-0.003906c1.3984-0.96094 3.2617-0.89062 4.582 0.17188 2.7305 2.1758 5.207 4.6602 7.3789 7.3984 1.0586 1.3203 1.1289 3.1758 0.17188 4.5703-2.1094 3.1406-2.832 6.4883-1.6406 9.3398s4 4.7305 7.7617 5.4609h-0.003906c1.6719 0.30078 2.9375 1.6719 3.1133 3.3594 0.38672 3.4297 0.38672 6.8906 0 10.32-0.17578 1.6875-1.4414 3.0547-3.1133 3.3594-3.7109 0.73047-6.5703 2.5898-7.7617 5.4609zm-33.891 9.2891c6.6719 0 13.02-2.8672 17.43-7.8672-2-7.9414-8.3281-13.512-17.461-13.512-9.1289 0-15.457 5.5703-17.43 13.512 4.418 5.0078 10.781 7.875 17.461 7.8672zm0-40.922v0.003906c-3.5117-0.003906-6.6797 2.1094-8.0195 5.3516-1.3438 3.2461-0.59766 6.9805 1.8906 9.457 2.4844 2.4805 6.2227 3.2148 9.4609 1.8594 3.2422-1.3555 5.3438-4.5273 5.3281-8.0391-0.023437-4.7695-3.8906-8.625-8.6602-8.6289zm0-7.5391c-6.6758 0-13.078 2.6523-17.797 7.375-4.7227 4.7188-7.375 11.121-7.375 17.797s2.6523 13.078 7.375 17.797c4.7188 4.7227 11.121 7.375 17.797 7.375s13.078-2.6523 17.797-7.375c4.7227-4.7188 7.375-11.121 7.375-17.797s-2.6523-13.078-7.375-17.797c-4.7188-4.7227-11.121-7.375-17.797-7.375z"
    fill-rule="evenodd" />
</svg>